/* XPM */
static char *_1eccf8a095741a5c55d5da5a26e65f5ZH3QFQo4cE9iVbIu[] = {
/* columns rows colors chars-per-pixel */
"50 34 154 2 ",
"   c None",
".  c #1A2C3F",
"X  c #172B42",
"o  c #1F3244",
"O  c #1C344C",
"+  c #1F3750",
"@  c #1E3854",
"#  c #1F3A58",
"$  c #233749",
"%  c #243A4D",
"&  c #2E3D4A",
"*  c #233C55",
"=  c #2B3F53",
"-  c #233F5A",
";  c #2B4153",
":  c #25425D",
">  c #2B445A",
",  c #2F495D",
"<  c #32485D",
"1  c #264360",
"2  c #2B4767",
"3  c #2D4A65",
"4  c #2C4B6B",
"5  c #344B62",
"6  c #324E69",
"7  c #3B5265",
"8  c #34516B",
"9  c #3C556B",
"0  c #2F4F72",
"q  c #345373",
"w  c #3D5C76",
"e  c #31567A",
"r  c #34597D",
"t  c #3B5C7B",
"y  c #3E617E",
"u  c #465B6F",
"i  c #405771",
"p  c #425C74",
"a  c #495E73",
"s  c #435E7A",
"d  c #4B6174",
"f  c #45627D",
"g  c #4B657C",
"h  c #49697C",
"j  c #546A7D",
"k  c #365E83",
"l  c #3B5E81",
"z  c #3C6384",
"x  c #3B668A",
"c  c #3D698D",
"v  c #3D6D94",
"b  c #3C6F99",
"n  c #3F7096",
"m  c #3D729B",
"M  c #3F76A3",
"N  c #436484",
"B  c #4B6683",
"V  c #456884",
"C  c #4D6883",
"Z  c #42668A",
"A  c #446A8C",
"S  c #4B6C8C",
"D  c #536C85",
"F  c #546E89",
"G  c #477281",
"H  c #4C738C",
"J  c #547186",
"K  c #5B7385",
"L  c #54748B",
"P  c #5B748B",
"I  c #537A8E",
"U  c #5B7C8C",
"Y  c #446D94",
"T  c #4A6C93",
"R  c #427095",
"E  c #4B7294",
"W  c #4F7891",
"Q  c #42739C",
"!  c #4C759B",
"~  c #477C9E",
"^  c #4A799C",
"/  c #547492",
"(  c #567D93",
")  c #5C7D92",
"_  c #53769C",
"`  c #527F9E",
"'  c #617886",
"]  c #63778B",
"[  c #627A8D",
"{  c #687F8F",
"}  c #637D91",
"|  c #4075A2",
" . c #4F7EA2",
".. c #537CA3",
"X. c #5D808F",
"o. c #5D8295",
"O. c #5D839A",
"+. c #5D8B9E",
"@. c #628394",
"#. c #648897",
"$. c #62869A",
"%. c #638A9B",
"&. c #66939F",
"*. c #4E83A3",
"=. c #5585A4",
"-. c #5B84A2",
";. c #5F8CA6",
":. c #5F8DA5",
">. c #5C8BA5",
",. c #5984A8",
"<. c #5E8CA9",
"1. c #5E92AA",
"2. c #5A90AC",
"3. c #5B91AB",
"4. c #608AA2",
"5. c #618CA2",
"6. c #668CA2",
"7. c #6389A6",
"8. c #628EA5",
"9. c #6A8FA4",
"0. c #688EAF",
"q. c #6290A1",
"w. c #6792A1",
"e. c #6190A4",
"r. c #6391A6",
"t. c #6694A6",
"y. c #6496A2",
"u. c #6991A3",
"i. c #6892A4",
"p. c #6896A7",
"a. c #6B92A4",
"s. c #6293AB",
"d. c #6694A8",
"f. c #6094AC",
"g. c #6295AD",
"h. c #6795A9",
"j. c #6D95A9",
"k. c #6398AF",
"l. c #6598AC",
"z. c #6298AE",
"x. c #6899AA",
"c. c #6A9AAC",
"v. c #7193A6",
"b. c #7194A6",
"n. c #6E96B2",
"m. c #6B93B4",
"M. c #6298B1",
"N. c #6699B1",
"B. c #679AB0",
"V. c #679DB2",
"C. c #699BB1",
"Z. c #6A9DB0",
"A. c #729FB0",
"S. c #73A0B2",
/* pixels */
"                                                                                                    ",
"            @.%.$.7.7.8.d.t.a.a.#.                                                                  ",
"          %.$./ T T T ! ! ..=.-.>.7.e.q.&.                                                          ",
"  ' { K @.9.) S S Z T T T R R Q Q Q ^  .,.1.l.l.w.#.  %.p.Z.V.l.g.g.e.$.                            ",
"& j ] K F ) L C i & l Y Y Q Q Q M | M M M Q ^ =.f.N.C.M.M.<.*. . .<.5.$.                            ",
"  & 7 u a d g g i < z Z Y v m | M M M M M M m R Y E ! ! !  .Q ,.n.}                                 ",
"        < 5 i g B s l z x c v R Q m | | M M M m m Y Z T Z ! ..m.v.                                  ",
"              ; a F D N N x x Z v Y n m M M M m m n Y S T T ..0.@.                                  ",
"                  9 D P F N x x Z A A c n n m m m m m n R H E -.$.                                  ",
"                    = i B B S S A Z V z z c n n m m m m R R S _ 7.                                  ",
"                        $ , S H H H V N f y z x v b b b n R Y E O.8.                                ",
"                        * ; H #.O.I L L h d w t z z v b m m v R ^ 8.U                               ",
"                        - > W &.9.) L ) } ' g p t t t x b m b v b ^ +.                              ",
"                        - : ( v.9.U 7 p J [ { K g p w t k x b m b n ^ o.                            ",
"                        O - G p.j.)     > 9 h K [ K B w w t x v n m Q :.@.                          ",
"                          X   o.j.o.        $ , u J ] F B w t k x b m *.p.                          ",
"                                $.)               ; 7 j P D s t l x x m 2.d.                        ",
"                                  @.K                 * 9 f g s w r k x  .g.#.                      ",
"                                                            5 w p q q r x *.M.                      ",
"                                                                5 9 6 4 e x *.c.                    ",
"                                                                  > 8 < 2 e x =.@.                  ",
"                                                                    * 8 3 2 r c o.                  ",
"                                                                        3 4 4 r S J                 ",
"                                                                          3 q 0 k I                 ",
"                                                                            : 4 0 W                 ",
"                                                                              - 4 N X.              ",
"                                                                                # e o.              ",
"                                                                                  : (               ",
"                                                                                . + V +.#.          ",
"                                                                                % @ 6 h o.j.&.      ",
"                                                                              $ > : : < f ) A.x.    ",
"                                                                              = 3 * o $ 7 g ) S.y.  ",
"                                                                              $           > 9 J +.  ",
"                                                                                                    "
};
