/* XPM */
static char *_0b06fd4c2974a98f1c17cc94d015dc0aHFgvN62inyPhiyL[] = {
/* columns rows colors chars-per-pixel */
"50 50 46 1 ",
"  c None",
". c #1D120F",
"X c #1F1411",
"o c #201411",
"O c #201512",
"+ c #221714",
"@ c #231714",
"# c #231815",
"$ c #2B201D",
"% c #2D221F",
"& c #2D231F",
"* c #2E2927",
"= c #302B29",
"- c #372C29",
"; c #3A3A3A",
": c #3A3A3B",
"> c #3A3B3B",
", c #3C3C3C",
"< c gray24",
"1 c #3D3E3E",
"2 c #494442",
"3 c #534944",
"4 c #534945",
"5 c #544B46",
"6 c #554B46",
"7 c #61605E",
"8 c #676360",
"9 c #706761",
"0 c #918983",
"q c #928A83",
"w c #999691",
"e c #9C9994",
"r c #9E9C97",
"t c #A09D98",
"y c #C8C1B9",
"u c #CEC7BF",
"i c #CEC8BF",
"p c #CFC9C1",
"a c #F5EFE6",
"s c #F7F2E8",
"d c FloralWhite",
"f c #FFFBF1",
"g c #FFFDF2",
"h c #FFFDF3",
"j c #FFFEF4",
"k c #FFFFF6",
/* pixels */
"                                                  ",
"                                                  ",
"                                                  ",
"                                                  ",
"    <<<<<<<;rhdddddhu&+####+&uhdddddh0O#######    ",
"    <<<<<<<;rhdddddhu&+####+&uhdddddh0O#######    ",
"    <<<<<<<;rhdddddhu&+####+&uhdddddh0O#######    ",
"    <<<<<<<;rhdddddhu&+####+&uhdddddh0O#######    ",
"    <<<<<<<;rhdddddhu&+####+&uhdddddh0O#######    ",
"    <<<<<<<;rhdddddhu&+####+&uhdddddh0O#######    ",
"    <<<<<<<;rhdddddhu&+####+&uhdddddh0O#######    ",
"    <<<<<<<;tkhhhhhkp$XOOOOX$pkhhhhhk0.OOOOOOO    ",
"    <<<<<<<<8q00000000000000000000000000000000    ",
"    <<<<<<<<*XOOOOO.3shhhhhhs3.OOOOO.0khhhhhhh    ",
"    <<<<<<<<=######O5adddddha5O#####O0hddddddd    ",
"    <<<<<<<<=######O5ahddddda5O#####O0hddddddd    ",
"    <<<<<<<<=@#####O5adddddda5O#####Oqdddddddd    ",
"    <<<<<<<<=@#####O5ahddddha5O#####Xqkddddddd    ",
"    <<<<<<<<=@#####O5adddddda5O#####X0kddddddd    ",
"    <<<<<<<<*OOOOOO.3skhhhhhs3.OOOOXXqkdhhhkhh    ",
"    <<<<<<<<255555539yuuuuuuy935355330piuuuuuu    ",
"    <<<<<<<,wsaaaaasy-&&&&&&-ysaaasas0$&&$&&&&    ",
"    <<<<<<<;rkhddhdku&O+++++&ukddhdhh0X##O##O#    ",
"    <<<<<<<;ehdddddhu&#####O&ukdddddh0O#######    ",
"    <<<<<<<;ekdddddhu&+####+&uhdddddh0O#######    ",
"    <<<<<<<;rhdddddhu&+####+&uhdddddh0O#######    ",
"    <<<<<<<;rhdddddhu&+####+&uhdddddh0O#######    ",
"    <<<<<<<;rhdddddhu&+####+&uhdddddh0O#######    ",
"    <<<<<<<;ehdddddhu&+####+&uhdddddh0O#######    ",
"    <<<<<<<<7                                     ",
"    <<<<<<<<                                      ",
"    <<<<<<<<<                                     ",
"    <<<<<<<<<                                     ",
"    <<<<<<<<<                                     ",
"    <<<<<<<<<                                     ",
"    <<<<<<<<<                                     ",
"    <<<<<<<<<                                     ",
"    <<<<<<<<<                                     ",
"    <<<<<<<<<                                     ",
"    <<<<<<<<<                                     ",
"    <<<<<<<<<                                     ",
"    <<<<<<<<<                                     ",
"    <<<<<<<<<                                     ",
"    <<<<<<<<<                                     ",
"    <<<<<<<<<                                     ",
"    <<<<<<<<                                      ",
"                                                  ",
"                                                  ",
"                                                  ",
"                                                  "
};
