/* XPM */
static char *_a2eb50020ae48edf35176e9d9cb1af5iw8ytzK8H0exVm11[] = {
/* columns rows colors chars-per-pixel */
"50 50 115 2 ",
"   c #3EA602",
".  c #3EAC01",
"X  c #3EAD08",
"o  c #3DB202",
"O  c #3DBB03",
"+  c #3FB00A",
"@  c #3FBD0A",
"#  c #44A703",
"$  c #43AC03",
"%  c #4AAD04",
"&  c #46A60A",
"*  c #48A50C",
"=  c #44AC0A",
"-  c #49AD0A",
";  c #56AF05",
":  c #53AE0A",
">  c #44B303",
",  c #4BB403",
"<  c #44BB03",
"1  c #4BBB04",
"2  c #45B309",
"3  c #4CB509",
"4  c #44BA09",
"5  c #4BBB09",
"6  c #54B504",
"7  c #5AB405",
"8  c #53BA04",
"9  c #59B906",
"0  c #54B509",
"q  c #5AB50B",
"w  c #53BB0A",
"e  c #5ABA0D",
"r  c #55B611",
"t  c #5CB512",
"y  c #57B810",
"u  c #60B30D",
"i  c #60B80A",
"p  c #3BC305",
"a  c #3DCE07",
"s  c #3EC20B",
"d  c #3BCF0C",
"f  c #3DD606",
"g  c #35DA04",
"h  c #3BDB05",
"j  c #3CD50B",
"k  c #36DC0A",
"l  c #3BDB0B",
"z  c #3AD610",
"x  c #37DC13",
"c  c #3DDE12",
"v  c #2FE00B",
"b  c #37E001",
"n  c #3CE003",
"m  c #36E00B",
"M  c #45C301",
"N  c #4BC303",
"B  c #46C901",
"V  c #4DCB03",
"C  c #43C20C",
"Z  c #4CC309",
"A  c #4ECB09",
"S  c #53C303",
"D  c #59C505",
"F  c #53CC04",
"G  c #59CC05",
"H  c #53C30A",
"J  c #59C508",
"K  c #54CC0A",
"L  c #5ACB0A",
"P  c #41D702",
"I  c #4CD204",
"U  c #42DB05",
"Y  c #4DDB04",
"T  c #42D40B",
"R  c #4CD30B",
"E  c #42DA0C",
"W  c #4DDD09",
"Q  c #53D305",
"!  c #59D505",
"~  c #54DD04",
"^  c #5ADD05",
"/  c #54D30B",
"(  c #5AD40A",
")  c #54DC09",
"_  c #5ADC0B",
"`  c #54CC12",
"'  c #5ECE10",
"]  c #42D612",
"[  c #41DA12",
"{  c #50D710",
"}  c #5BDE13",
"|  c #63CF07",
" . c #66CD0C",
".. c #6ACD0A",
"X. c #61D007",
"o. c #62D20B",
"O. c #60DE0B",
"+. c #66CF12",
"@. c #6BCD13",
"#. c #63D211",
"$. c #6AD317",
"%. c #4EE302",
"&. c #44E108",
"*. c #4BE00B",
"=. c #54E203",
"-. c #5AE204",
";. c #55E904",
":. c #59E804",
">. c #55E20A",
",. c #5AE20A",
"<. c #57E809",
"1. c #58E80C",
"2. c #57E110",
"3. c #5AE010",
"4. c #63E209",
/* pixels */
"=.^ _ ..X.@.Z > > Q =.~ ~ W >.^ =.=.Q > 3 < 4 4 1 >.=.=.X.@.@.8 > > / =.~ ) =.=.~ ~ ,./ < < 1 , < 1 ",
"=.~ ^ o.o.@.Z , 2 I -.~ >.=.=.^ ~ ~ Q < 1 1 > > , ) ^ ) o. .#.Z 1 < Q =.~ >.=.) =.~ ~ Q < < 2 , 2 < ",
"_ ~ =.( X.o.< < < V _ ^ _ =.=.^ ,.^ Q < < < < 1 B W ) >.X.X.o.8 2 , F >.^ =.=.^ ~ =.>.Q < > < < 1 < ",
"h h h Q G L 1 % > < Z < V ~ ~ >.=.=.~ Y Q ! Q ~ F U U E Q G / < 2 $ < M 1 V =.^ ^ =.=.~ ! ! Q Y ^ Q ",
"h k l I G / < . $ $ 5 < F >.=.^ Y ~ >.) >.>.^ >.>.n k E Y Q / > . $ > , , F >.Y ) =.~ ~ -.,.>.>.,.-.",
"l x ] R Q R > # % , 4 > A ~ =.~ >.^ ~ =.=.~ ~ =.) h k z T / / , X X 2 < > V =.>.=.^ ^ ~ =.~ =.^ ~ ) ",
"< O 4 a U l < $ . Z / Q ) >.=.Q S 8 F =.=.( S S H < < < j U l O # # A Q / / =.~ ! S 1 F =.=.) S H S ",
"% . % d l k O -   I -.=.~ =.^ F ; 7 S ^ ~ ( 9 6 0 $ $ # d l l > $ $ I =.=.>.~ _ G 6 6 H ) =.! 6 7 0 ",
"$ $ $ l k h < .   F ^ ^ ^ ~ -.Q q 8 F 1.-.^ 8 0 6 $ # 2 T g [ < . # H =.%.~ _ :.Q 6 8 S 4.-.( 6 0 6 ",
", 2 2 < p C A A A ) =.%.Q S L S % % > 5 1 N F ( / 2 > > < p s B I F ) ~ ~ Q F F 8 3 2 , N < V / / ! ",
"1 2 1 # . & / ;.Y ~ >.=.G 6 q 6 $ $ % # . > / =.~ > 1 < . * X I =.=.=.=.,.G % 0 ; $ $ = X   > >.^ ^ ",
"< 2 1 $ $ # F ;.:.) ,._ F 6 0 3 = $ $ $ . < _ ;.^ 1 5 < > # $ Q -.=.~ >.} K 6 7 - > > $ $ = > _ =.~ ",
"2 > > B N V F I / V F L F V F 1 X $ $ $ $ > K F S 2 > > N F B F Q / F F F G G F S $ $ $ $ $ > L F F ",
"$ $ $ ~ ^ :.F Z N 1 6 6 F =.:.F $ $ $ 3 # % 6 7 8 $ $ > / :.,.F Z N 1 0 6 F =.>.F . = = 3 . > 7 6 7 ",
"$ $ $ ) =.>.V N F 8 9 6 G ^ _ V $ $ $ . . $ 6 q 8 % $ $ / =.) A B Z 9 7 7 G ,.>.F > = X $   $ 6 0 8 ",
"> $ $ Z I A V Q V w y 6 S ! ! V 1 4 Z 1 1 Z 1 0 1 # % $ Z I I A Q Q S 0 0 S Q Q J 4 w 1 B 1 w w 9 6 ",
"# $ $ $ & . / ;.=.F 0 0 9 7 6 H >.:.~ =.-.~ O 4 > % $ # X . . Q =.-.F 0 q q 6 ; D -.=.^ %.:._ 6 8 7 ",
"$ > $ $ $ # / -.>.G 6 8 0 7 6 G =.%.>.%.>.Q 1 3 < $ > = $ $ $ Q >.-.G 6 6 9 9 8 F >.=._ %.-.! 6 0 0 ",
"$ $ X > % > H / / S 0 , , 8 , 9 ! Q Q W W R B Z B $ $ # % % , H / Q S , , 6 , , 8 ( F ( *.W / F D J ",
"> $ $ 6 0 q 1 < 1 $ # $ $ $ # % 7 8 1 E h U ^ ~ _ $ > % 0 8 0 5 < < $ = $ $ $ $ % 9 6 S h l l ~ ~ ^ ",
"$ # # w 8 8 2 > < > = = $ + 2 3 e 9 Z [ h h =.=._ $ $ $ 0 8 0 > > > $ & = > = = 2 9 6 1 h j E >.~ =.",
"> $ > w 8 8 S N N > $ $ $ $ $ > , , M [ k E 2.=.Y 2 $ % 1 S 8 N M N > $ # $ $ . 2 w 0 Z l l l Y ~ ) ",
", 2 1 J F F ) ^ ^ 1 $ $ $ $ $ > % $ < l k l T k E < < 2 K F L ^ ) ^ Z 2 > > $ $ $ $ % < k l x h l l ",
"< < < F Q R ) %.1.1 $ $ $ - # . = $ < l l k E g j O < < F Q I ~ =.-.N   $ # $ . $ $ $ o x h l k l l ",
"< 1 < V Q R Q ~ ) M > = = o > $ 2 $ M T j f j j T < 6 < V Y Q / ~ ) M o = o < > > > 2 O T l l j l j ",
"Y ^ ^ o. .' H 1 1 V ^ _ Q ~ ~ ~ Q ) K < < 5 1 < M Y ^ ) o. ...N 1 1 K ^ _ ) Q Y Q Q _ F 8 6 6 8 9 9 ",
">.,._ ....+.1 < , Q ;.>.=.=.=.=.%.:.Q < , 4 < < > _ ^ ~ |  .$.B 2 > K -.=.=.~ >.-.=.=./ 8 0 e 6 6 6 ",
"^ Y *.( ..#.1 , < A >.^ >.=.~ ~ ,.>.R < 1 2 > , Z ) =.%.o.@.@.1 < O Q -.~ ~ ^ ^ %.=.^ ( 8 8 7 6 w 0 ",
"U h k Q G ( < $ 2 < Z 1 A ~ ) 3.~ ~ ~ Q ^ I Q ~ / U h E #. .@., = $ 1 5 < V <.=.Y ,.) _ Q _ _ _ ^ / ",
"l c l I F Q < . $ , > > F =.;.=.-.^ -.,.^ >.>.;.=.h l j L o.@.5 . $ > 3 4 V -.Y _ -.=.=.^ ) ~ Y =.=.",
"g E j R I R 3 * # 2 < > V >.^ Q >.;.~ =.~ -.^ -.^ h x [ #.o.$.2 $ $ > 1 < A _ _ %.~ =.=.=.~ >._ ^ >.",
"O 4 < T U P < $ $ B Y Y Q >.~ ~ 9 9 F >.>.Q S H H < @ 4 A P ) 4 $ $ H Q I W ~ ^ ! S 9 K ~ =.^ S 8 S ",
". $ & f l k @ # $ V -.>.=.=.~ / 6 6 H ^ =.! 8 6 8 $ $ $ g z k < % $ K :.~ =.=.^ F 6 q S ^ ;.^ 0 6 6 ",
"$ $ $ T l l < $ $ N >.=.) >.^ Q 7 7 J ,.:.( w 6 6 $ $ $ j [ j O . . Z ~ =.^ ~ >.( 6 6 S ^ ,./ 6 6 6 ",
", 3 o O p C Z F V Q >.Y Q S G 1 : % > B M N K K K 6 3 > O p s B A V / :.=.Q F F 8 > : 3 < M B F Q Q ",
"< 2 4 = o # Q ;.>.=.=.=.F 6 q 6 $ $ $ $ . > ) =.~ < 4 < $ o & L ,.=.=.=.%.D 7 6 : + X # .   , ,.>.-.",
"< 1 4 # > # V ;.>.^ -._ L 6 q 3 # + > = - , ^ =.Y 1 4 > $ > # / >.;.-.) ) L 7 7 ; o o > $ # , =.^ ~ ",
"> 3 > M V S F Q R F G F F G G 1 # > . $ # > K F K 5 3 > N N N I / I F J G F F / 5 . $ $ 3 = $ F F F ",
"# # > ^ :.,.V B Z 8 6 , F =.-.A & > > $ 2 o 1 6 , $ # > Q ,.=.F N N 1 6 7 F =.>.` $ & $ = $ > 0 7 0 ",
"+ $ % Q >.%.K Z N 8 q 0 G ;.=.K   . # & # $ 8 q 9 % $ $ %.,.%.K Z S 1 9 q F %.-.F   $ $ $ $ $ q 0 8 ",
"# $ > N F Z K I Q Z , 8 S L L G 1 p 1 Z M B 0 6 < - $ $ N I F F I / S 0 6 D L L Z B 1 1 N 1 < 9 9 0 ",
"$ $ $ $ $ o F -.^ D 7 7 8 8 8 S -.;.-.,.^ ) 1 < , - > $ $ . o K >._ J 6 0 8 8 , F ~ -.>.<.<.^ 8 0 8 ",
"$ $ 2 % = $ / -.;.L q y 9 7 6 S >.%.-.>.^ ) > 2 6 $ . & & $ $ / =.-.F 0 e 9 6 0 D <.;.~ ) =.) 6 0 0 ",
"+ $ $ % 2 > K I Y 1 % 0 3 0 , Z ( Q ! Y Y Y N S B $ > > $ > > F / ! S 2 0 6 6 0 8 Q Q Q ) ~ I S S S ",
". 2 $ 6 8 6 1 < < , # > $ > $ > 7 6 1 h h E %.=.) > $ $ 8 8 9 > < 1 $ $ . $ > # , w 0 Z j c l ) ^ ^ ",
"> = # 0 6 6 0 , , 2 = $ . > # - 9 q Z c z l ) ^ ~ $ $ # 0 6 t 3 2 2 > % $ . >   > : q V n m U ^ =.>.",
"$ $ $ w 8 8 1 < N , $ $ $ $ # 3 1 6 1 h E U ~ ^ Q > % $ 8 8 0 N M 1 > $ # > 2 2 6 r : 1 j l E _ W W ",
"4 1 < F F Q ) >.) N . . 2 % $ o = % < k c x g m l w 0 8 Q I F ^ =._ N $ = $ $ $   2 $ < l k v l l l ",
"1 2 < F Q A ~ =.>.1 $ $ o $ $ $ 2 & < k k l l l j 8 7 0 F Q A ~ ^ =.N $ $ $ $ $ X $ $ < m l l l l l ",
"1 < 2 F Q I ~ ~ >.N $ $ > $ $ $ 2 # < h h l l k l 8 8 0 F Q I ~ ~ ;.< $ $ $ > = $ $ # 4 l l k l l l "
};
