/* XPM */
static char *_2e14029f6b744c9aca3bcde29d2f64bQ9p05ElHVpuAqkqa[] = {
/* columns rows colors chars-per-pixel */
"50 50 174 2 ",
"   c None",
".  c #393C10",
"X  c #4B1609",
"o  c #4B190B",
"O  c #471F0B",
"+  c #531F10",
"@  c #44250C",
"#  c #472F13",
"$  c #572213",
"%  c #592517",
"&  c #5D2718",
"*  c #5F2819",
"=  c #4B3C18",
"-  c #62271A",
";  c #622A1B",
":  c #682F20",
">  c #6F3525",
",  c #723726",
"<  c #7B3E2D",
"1  c #773B2A",
"2  c #354B15",
"3  c #2D5415",
"4  c #1E6C17",
"5  c #1F6D18",
"6  c #1F7119",
"7  c #276017",
"8  c #246718",
"9  c #206E19",
"0  c #32611E",
"q  c #21721B",
"w  c #25781E",
"e  c #3F5721",
"r  c #237C22",
"t  c #2A7B22",
"y  c #387C2F",
"u  c #4F4D23",
"i  c #664427",
"p  c #7C4030",
"a  c #7F583A",
"s  c #446525",
"d  c #516E29",
"f  c #587030",
"g  c #5B7F3E",
"h  c #6C6C3C",
"j  c #716D37",
"k  c #79633D",
"l  c #726B3E",
"z  c #6B713D",
"x  c #617B3E",
"c  c #69793C",
"v  c #7D7240",
"b  c #854635",
"n  c #8E4D3B",
"m  c #874A39",
"M  c #914D3C",
"N  c #87553C",
"B  c #8C533D",
"V  c #825B3C",
"C  c #92513F",
"Z  c #89603F",
"A  c #955342",
"S  c #9E5E4C",
"D  c #995545",
"F  c #97644B",
"G  c #A46351",
"H  c #B36F5F",
"J  c #AE705E",
"K  c #B77765",
"L  c #BB7C6A",
"P  c #268226",
"I  c #2D8525",
"U  c #268629",
"Y  c #2C842A",
"T  c #27892B",
"R  c #288E2E",
"E  c #338F2A",
"W  c #2A902F",
"Q  c #35942D",
"!  c #399A2F",
"~  c #3B8D34",
"^  c #2A9633",
"/  c #2C9A36",
"(  c #2D9F39",
")  c #359F3E",
"_  c #3A9D3E",
"`  c #379734",
"'  c #39A72E",
"]  c #2EA63E",
"[  c #2EA83F",
"{  c #3BA235",
"}  c #33A43E",
"|  c #31A93F",
" . c #3DAE33",
".. c #4D8D3E",
"X. c #4A8237",
"o. c #50883E",
"O. c #58883F",
"+. c #57833E",
"@. c #43933C",
"#. c #419B3E",
"$. c #43AD3A",
"%. c #4EA73A",
"&. c #46B33D",
"*. c #4AB83F",
"=. c #2FAA40",
"-. c #30A740",
";. c #3DA644",
":. c #33AC41",
">. c #3FAB46",
",. c #36B041",
"<. c #3AB443",
"1. c #3FB845",
"2. c #3AB148",
"3. c #5D8843",
"4. c #479A40",
"5. c #4B9A43",
"6. c #589541",
"7. c #4EA344",
"8. c #41AB44",
"9. c #5FAE47",
"0. c #55AA4D",
"q. c #43BD46",
"w. c #4ABB44",
"e. c #42B74A",
"r. c #52B046",
"t. c #57AF51",
"y. c #59AE51",
"u. c #4ABB53",
"i. c #57BE53",
"p. c #68AD48",
"a. c #6BA747",
"s. c #66B449",
"d. c #7AA05B",
"f. c #66BD5E",
"g. c #47C147",
"h. c #4BC246",
"j. c #4BC548",
"k. c #4EC849",
"l. c #52C747",
"z. c #53CD4B",
"x. c #5CCB4C",
"c. c #58C54A",
"v. c #57D14C",
"b. c #59D34D",
"n. c #5CD451",
"m. c #64C05B",
"M. c #61D856",
"N. c #5FCC64",
"B. c #66D267",
"V. c #74DF6F",
"C. c #70E065",
"Z. c #7CE772",
"A. c #7CE476",
"S. c #848454",
"D. c #9A9467",
"F. c #BF806E",
"G. c #B28A6D",
"H. c #AA936B",
"J. c #BB8D72",
"K. c #B49071",
"L. c #C58472",
"P. c #CC8C7A",
"I. c #C78975",
"U. c #D18A7B",
"Y. c #86EB7C",
"T. c #89EF7F",
"R. c #81E976",
"E. c #89E681",
"W. c #8AEE82",
"Q. c #91ED88",
"!. c #96F58D",
"~. c #98F78F",
"^. c #99F790",
"/. c #9CFA93",
/* pixels */
"                                                                                                    ",
"                                                                                                    ",
"                                                                                                    ",
"                                                                                                    ",
"                                      9 9 9 9 9 9 9 9                                               ",
"                                      9 9 4 5 9 4 5 4                                               ",
"                                      9 w 5.0.0.0.0.0.~                                             ",
"                                      4 t E././././.^.4.4 4 4 4                                     ",
"                                      U ` E.~.R.Z.Z.Z.m.0.t.t.5.                                    ",
"                                  5 q ( 2.W.!.M.v.b.b.Y./././.f.4 9                                 ",
"                                ~ t.t.:.:.N.B.n.b.b.b.C.Z.Z.Z.c.T P                                 ",
"                              4 @.^.!.2.-.-.| z.b.b.b.b.b.v.n.g.=.R 9 9                             ",
"                              ~ 7.W.Y.u.:.<.<.z.b.b.b.b.b.b.b.g.[ R 9 9                             ",
"                          4 @.Q.Y.n.b.v.b.b.b.b.b.b.b.b.b.b.b.g.| T 4 5                             ",
"                          w _ !.T.n.b.b.b.b.b.z.z.z.b.b.b.b.b.g.] / I I                             ",
"                      9 r ] u.^.W.b.b.b.b.b.z.:.-.j.b.b.b.b.b.g.] q.x.{ 9 9                         ",
"                      9 w ^ >.A.Z.b.b.b.v.z.g.:.[ g.b.z.j.k.k.q.<.g.n. .r r                         ",
"                      9 5 9 r | <.v.b.b.v.,.-.=.| j.b.<.| | [ q.v.b.b.g.-./ q 5                     ",
"                    q q q w P ] <.z.z.v.z.:.=.-.:.j.b.q.:.-.:.q.b.b.b.g.-./ r 5                     ",
"                  9 U ( | h.q.[ :.:.,.,.,.=.:.k.z.z.b.z.z.z.z.z.b.b.b.q.-.] / ^ q 9                 ",
"                q q T | <.v.k.:.-.} ;.) ) -.:.z.b.b.b.b.b.b.b.b.b.b.v.q.[ | | ( 9 9                 ",
"              9 U ] ] [ <.v.b.v.s.V V V k _ =.z.b.b.b.b.b.b.b.v.b.g.:.:.[ ,.z.*.q 5                 ",
"              w W :.| ] <.v.b.b.s.N N n N 5.8.c.v.x.c.z.b.v.z.v.z.w._ } [ <.b.w.t w                 ",
"        9 9 Q l.z.z.q.] | | 1.b.h._ 4.a A G.H.%.$.c F p.v.q.:.:.:.O.V g [ ,.v.x.z.$.q 9             ",
"        9 9 ! b.v.b.g.=.-.] | b.j.-.-.a A L.J.%.' j M a.b. .-.-.-.g M x ] <.z.b.b.w.q 9             ",
"            I Q &.b.z.j.r.z x e.2.-.-.~ 3.J.L.v j V M %.w.d.D.S.h x o.7.g.j.b.z.1.{ q 9             ",
"              4 ! b.b.b.s.B k } -.-.=.=.;.K.L.D n M M o.-.D.P.H n x =.g.b.b.b.z.[ ^ 5 9             ",
"                I Q { <.>...+.h h v v _ ;.K.I.L K D M k v F G m * f j.z.b.z.q.} U r q 9             ",
"                  5 T -.-.=.~ A m n N #.;.G.P.P.P.G n n m n n > o d n.b.b.z.| / q 9 9 9             ",
"                    r r T -.) 5.g 0 s h v S G L.P.G n n n > - u y ` <.<.<.} P r                     ",
"                      5 r -.=.=./ 5 8 a A n A L.P.G n A N & X e =.=.] ] [ / q 4                     ",
"                      4 r R R R R T t i , , < L P.G n < > = . e W R R ^ W T q                       ",
"                          9 9 9 r =.) # o o % L P.G n ; o 3 4 6 9 9 9 5 9 9                         ",
"                          9 9 9 r R U 2 . O % L P.G n ; o 2 6 5 9 9 5 q 9                           ",
"                                  9 9 6 8 @ % L P.G n ; o                                           ",
"                                  9 9 5 3 @ % L P.G n ; o                                           ",
"                                          o % L P.G n ; o                                           ",
"                                          o % J F.F n ; o                                           ",
"                                          o + m M M n ; o                                           ",
"                                          o + b M M n ; o                                           ",
"                                          o + b M M C ; o                                           ",
"                                          o + b M b < ; -                                           ",
"                                      o o o $ b C ; o < n ; o o                                     ",
"                                      o o o + b n ; o 1 m * o o                                     ",
"                                      o o     $ $     $ $ o o o                                     ",
"                                      o o     o o     o o o o o                                     ",
"                                                                                                    ",
"                                                                                                    ",
"                                                                                                    ",
"                                                                                                    "
};
