/* XPM */
static char *_6d1adea3edd4d46a307a0813e3b5b4c1TKqX9axwFf3zCUC[] = {
/* columns rows colors chars-per-pixel */
"50 50 72 1 ",
"  c black",
". c #2E251F",
"X c #695446",
"o c #685346",
"O c #5C4A3D",
"+ c #0B0907",
"@ c #2A2018",
"# c #614837",
"$ c #604836",
"% c #614836",
"& c #553F30",
"* c #0A0806",
"= c #2A1F18",
"- c #26190F",
"; c #573923",
": c #563923",
"> c #4C321F",
", c #090604",
"< c #573A23",
"1 c #261910",
"2 c #583A24",
"3 c #573A24",
"4 c #4D331F",
"5 c #20150D",
"6 c #49311E",
"7 c #49301E",
"8 c #402A1A",
"9 c #080503",
"0 c #020100",
"q c #060402",
"w c #070503",
"e c #070402",
"r c #050302",
"t c #342A23",
"y c #342923",
"u c #352A23",
"i c #191411",
"p c #040302",
"a c #2C231D",
"s c #685243",
"d c #695344",
"f c #342921",
"g c #080605",
"h c #584539",
"j c #593D28",
"k c #5A3E29",
"l c #2C1E14",
"z c #4B3422",
"x c #2B1C11",
"c c #070403",
"v c #49301D",
"b c #2B1D11",
"n c #261A10",
"m c #120C07",
"M c #020101",
"N c #040403",
"B c #0B0908",
"V c #0C0A08",
"C c #0D0A08",
"Z c #0C0908",
"A c #0A0807",
"S c #29211B",
"D c #5D4A3E",
"F c #514136",
"G c #28201B",
"H c #2B2018",
"J c #624937",
"K c #554030",
"L c #271A10",
"P c #130D08",
"I c #030201",
"U c white",
/* pixels */
" .XooooooooooooooooooooXO+.Xoooooooooooooooooooooo",
" @#$$$$$$$$$$$$$$$$$$$$%&*=#$$$$$$$$$$$$$$$$$$$$$$",
" -;:::::::::::::::::::::>,-;::::::::::::::::::::::",
" -<::::::::::::::::::::;>,-<::::::::::::::::::::::",
" -<::::::::::::::::::::;>,-<::::::::::::::::::::::",
" -<::::::::::::::::::::;>,-<::::::::::::::::::::::",
" -<::::::::::::::::::::;>,-<::::::::::::::::::::::",
" -<::::::::::::::::::::;>,-<::::::::::::::::::::::",
" -<::::::::::::::::::::;>,-<::::::::::::::::::::::",
" 12<<<<<<;<<;<<;<<<<<<<34,-2<<<<<<;<<;<<;<<<<<<<<<",
" 5677777777777777777777689567777777777777777777777",
" 0qqqqqqqqqqw9eqqqqqqqqqr 0qqqqqqqqqqw9eqqqqqqqqqq",
"ttyyyyyyyyyuipatyyyyyyyyyttyyyyyyyyyuipatyyyyyyyyy",
"sssssssssssdfghdssssssssssssssssssssdfghdsssssssss",
"jjjjjjjjjjjklwzkjjjjjjjjjjjjjjjjjjjjklwzkjjjjjjjjj",
":::::::::::<xcv;::::::::::::::::::::<xcv;:::::::::",
":::::::::::<xc7<::::::::::::::::::::<xc7<:::::::::",
":::::::::::<xc7<::::::::::::::::::::<xc7<:::::::::",
":::::::::::<xc7<::::::::::::::::::::<xc7<:::::::::",
":::::::::::<xc7<::::::::::::::::::::<xc7<:::::::::",
":::::::::::<xc7<::::::::::::::::::::<xc7<:::::::::",
":::::::::::<xc7<::::::::::::::::::::<xc7<:::::::::",
"<<<<<<<<<<<2bc62<<<<<<<<<<<<<<<<<<<<2bc62<<<<<<<<<",
"n-----------mM5----------1-----------mM5----------",
" NBBBBBBBBBBVCZBBBBBBBBBA NBBBBBBBBBBVCZBBBBBBBBBB",
" SDOOOOOOOOOOOOOOOOOOOODF*GDOOOOOOOOOOOOOOOOOOOOOO",
" HJ%%%%%%%%%%%%%%%%%%%%JK*@J%%%%%%%%%%%%%%%%%%%%%%",
" -;:::::::::::::::::::::>,-;::::::::::::::::::::::",
" -<::::::::::::::::::::;>,-<::::::::::::::::::::::",
" -<::::::::::::::::::::;>,-<::::::::::::::::::::::",
" -<::::::::::::::::::::;>,-<::::::::::::::::::::::",
" -<::::::::::::::::::::;>,-<::::::::::::::::::::::",
" -<::::::::::::::::::::;>,-<::::::::::::::::::::::",
" -<::::::::::::::::::::;>,-<::::::::::::::::::::::",
" 12<<<<<<;<<;<<;<<<<<<<34,-2<<<<<<;<<;<<;<<<<<<<<<",
" 5677777777777777777777689567777777777777777777777",
" 0qqqqqqqqqqw9eqqqqqqqqqr 0qqqqqqqqqqw9eqqqqqqqqqq",
"ttyyyyyyyyyuipatyyyyyyyyyttyyyyyyyyyuipatyyyyyyyyy",
"sssssssssssdfghdssssssssssssssssssssdfghdsssssssss",
"jjjjjjjjjjjklwzkjjjjjjjjjjjjjjjjjjjjklwzkjjjjjjjjj",
":::::::::::<xcv;::::::::::::::::::::<xcv;:::::::::",
":::::::::::<xc7<::::::::::::::::::::<xc7<:::::::::",
":::::::::::<xc7<::::::::::::::::::::<xc7<:::::::::",
":::::::::::<xc7<::::::::::::::::::::<xc7<:::::::::",
":::::::::::<xc7<::::::::::::::::::::<xc7<:::::::::",
":::::::::::<xc7<::::::::::::::::::::<xc7<:::::::::",
":::::::::::<xc7<::::::::::::::::::::<xc7<:::::::::",
"<<<<<<<<<<<2bc62<<<<<<<<<<<<<<<<<<<<2bc62<<<<<<<<<",
"-----------LPI5L--------------------LPI5L---------",
"                                                  "
};
