/* XPM */
static char *e9aca8a404584deaef8f92f63be01b97h2V1giFZQWN4b4qw[] = {
/* columns rows colors chars-per-pixel */
"50 50 153 2 ",
"   c None",
".  c #000000",
"X  c #090703",
"o  c #090803",
"O  c #090908",
"+  c #050508",
"@  c #110E03",
"#  c #100F0A",
"$  c #121004",
"%  c #11100A",
"&  c #0D0E10",
"*  c #111111",
"=  c #3E390E",
"-  c #373630",
";  c #48370D",
":  c #41380E",
">  c #544D13",
",  c #5E581E",
"<  c #674E12",
"1  c #684F13",
"2  c #685916",
"3  c #6A5C1D",
"4  c #7A5D16",
"5  c #71591C",
"6  c #7A6017",
"7  c #7C721D",
"8  c #504F46",
"9  c #515046",
"0  c #57564C",
"q  c #656458",
"w  c #666350",
"e  c #79786A",
"r  c #926F1A",
"t  c #88781E",
"y  c #977A1D",
"u  c #AA821E",
"i  c #968A22",
"p  c #A78E23",
"a  c #B68C21",
"s  c #AB9223",
"d  c #B9AB2B",
"f  c #BDA227",
"g  c #BFB23D",
"h  c #CD9D25",
"j  c #CEA026",
"k  c #C0A428",
"l  c #CFAF2B",
"z  c #D1A025",
"x  c #C0B12C",
"c  c #CEBE2D",
"v  c #D0B12C",
"b  c #CEBE30",
"n  c #FBBF2A",
"m  c #FBBE26",
"M  c #D1C130",
"N  c #FCC12D",
"B  c #FFC82F",
"V  c #FDD72F",
"C  c #FBC130",
"Z  c #FDD732",
"A  c #FDD935",
"S  c #FDD938",
"D  c #FFE536",
"F  c #FFEB36",
"G  c #FFE639",
"H  c #FFEC3B",
"J  c #FFF23D",
"K  c #968F4F",
"L  c #AB9A4E",
"P  c #AA9154",
"I  c #858374",
"U  c #918F7E",
"Y  c #BEB073",
"T  c #E5BA50",
"R  c #CDB579",
"E  c #FCDB48",
"W  c #FCDB45",
"Q  c #E1C95E",
"!  c #E2D454",
"~  c #FDD457",
"^  c #FDD65B",
"/  c #FFEC40",
"(  c #FEEC4F",
")  c #FEEC52",
"_  c #FFF053",
"`  c #CEC67F",
"'  c #FCD265",
"]  c #FDDB65",
"[  c #FDD368",
"{  c #FDD97D",
"}  c #FDDC73",
"|  c #FBE167",
" . c #FEE669",
".. c #FEE473",
"X. c #FFE876",
"o. c #FDE57B",
"O. c #FFF171",
"+. c #FFF27C",
"@. c #939283",
"#. c #969696",
"$. c #999894",
"%. c #A19F8C",
"&. c #A3A18E",
"*. c #BAB796",
"=. c #ACACAB",
"-. c #BAB7A2",
";. c #BCBAA4",
":. c #BFBFBF",
">. c #BCBBB0",
",. c #D8C986",
"<. c #DED89E",
"1. c #E1C88C",
"2. c #FDDF8B",
"3. c #FDDF95",
"4. c #FBE684",
"5. c #FFEF85",
"6. c #FDEA8C",
"7. c #FFF386",
"8. c #FFF788",
"9. c #FDE096",
"0. c #FFE298",
"q. c #FDEC9B",
"w. c #FFF59D",
"e. c #FFF89F",
"r. c #FEE6AC",
"t. c #FEEFAD",
"y. c #F9EAA0",
"u. c #FFF6A3",
"i. c #FEF5AA",
"p. c #FDE7B0",
"a. c #F8EEB6",
"s. c #FDF6B5",
"d. c #FFF8B6",
"f. c #FFF8B8",
"g. c #FBF5B8",
"h. c #BFBFC1",
"j. c #CECECE",
"k. c #D4D2C4",
"l. c #CECED1",
"z. c #FAF2C3",
"x. c #FFFAC1",
"c. c #F8F4CA",
"v. c #FFF9C9",
"b. c #F7F4D7",
"n. c #F9F5D2",
"m. c #F7F4D9",
"M. c #F8F5DA",
"N. c #FCF9DB",
"B. c #F9F7E3",
"V. c #FAF9E5",
"C. c #FBFAEB",
"Z. c #FDFCF4",
"A. c #FFFFFE",
/* pixels */
"                                  . . . . . . . . . . . . . . . .                                   ",
"                                  . . . . . . . . . . . . . . . .                                   ",
"                                  . . . . . . . . . . . . . . . .                                   ",
"                                - q q q q q q q w 3 2 2 2 2 2 2 2 :                                 ",
"                . . . . . . . . 9 b.m.m.m.m.m.m.z.E A S A A A A A 2 . . . . . . . .                 ",
"                . . . . . . . . 8 b.b.b.b.b.b.m.z.E A Z A A A A A 2 . . . . . . . .                 ",
"                + O O O O O O + 0 b.b.b.b.b.b.m.z.E Z S A A A A A 3 + + O O X o X X                 ",
"        . . . . e ;.*.-.>.:.:.:.k.m.b.b.b.b.b.m.z.E Z A A A A A Z ,.h.>.j.Y f f k t . . . .         ",
"        . . . . @.N.N.N.C.A.A.A.Z.b.b.b.b.b.m.m.z.E Z Z Z S Z S A i.A.A.A.q.A S D s . . . .         ",
"        . . . . U N.b.b.C.A.A.A.Z.b.b.b.b.b.b.m.z.E Z Z Z Z Z Z Z t.A.A.A.q.Z A A s . . . .         ",
"        . . . . @.C.B.B.C.Z.Z.Z.C.B.B.B.B.B.B.B.b.4.......| | | | q.z.a.z.q.....X.L X . . .         ",
"        . . . . #.A.A.A.C.b.b.b.B.A.A.A.A.A.A.A.A.A.Z.A.A.M.b.b.b.o.A S A q.A.Z.A.=.. . . .         ",
"        . . . . #.A.A.A.C.b.b.b.V.A.A.A.A.A.A.A.A.A.A.A.A.M.m.m.b.} S S Z q.A.A.A.=.+ . . .         ",
"        . . . . #.A.A.A.C.b.b.b.V.A.A.A.A.A.A.A.A.A.A.A.A.B.b.b.b.o.Z S Z q.A.A.A.=.X . . .         ",
". . . O I &.&.&.k.V.V.V.C.Z.C.Z.Z.A.A.A.A.A.A.A.A.V.V.V.V.m.b.b.m.a.q.y.q.6.X.X.o.Q p p p y $ . . . ",
". . . O ;.N.N.N.N.n.b.b.C.A.A.A.A.A.A.A.A.A.A.A.A.M.b.b.b.b.b.b.m.m.m.m.B.4.V V A A S A D v $ . . . ",
". . . O -.N.b.b.b.b.b.b.C.A.A.A.A.A.A.A.A.A.A.A.Z.B.b.m.b.b.b.b.b.b.b.b.m.4.Z A A A A A A v $ . . . ",
". . . O -.N.b.m.b.b.b.b.C.A.A.A.A.A.A.A.A.Z.Z.A.Z.M.b.b.b.b.m.b.b.n.c.n.n.4.Z A A A A A S v $ . . . ",
". . . O -.N.b.b.b.b.b.b.C.A.A.A.A.A.A.A.Z.B.M.M.M.b.b.b.b.b.b.b.b.g.u.w.u. .Z A Z S A A S v $ . . . ",
". . . O -.N.b.b.b.b.b.b.C.A.A.A.A.A.A.A.Z.M.b.b.m.m.b.b.m.b.b.b.b.s.w.w.w.| A A S S A A S v $ . . . ",
". . . O -.M.b.b.b.b.m.b.C.A.A.A.A.A.A.A.Z.M.b.b.b.b.b.b.b.b.b.b.b.g.w.w.w. .A A Z S S Z A x $ . . . ",
". . . O -.N.b.b.b.b.b.b.C.A.A.A.A.A.A.A.Z.M.b.m.b.b.m.b.b.b.m.b.b.s.w.w.w. .A Z S Z S Z A v $ . . . ",
". . . O -.N.b.b.b.b.b.b.C.A.A.A.A.A.A.A.A.M.m.m.b.b.b.b.b.b.b.b.b.g.w.w.w. .A A Z Z A A A v $ . . . ",
". . . O -.N.m.m.m.b.b.b.C.A.A.A.A.A.A.A.Z.M.m.m.m.b.b.b.m.b.b.b.m.s.w.w.w. .A A A S S Z S v $ . . . ",
". . . O *.v.c.z.z.c.c.z.B.A.A.A.A.A.A.A.Z.M.b.m.b.b.b.m.b.b.b.b.b.s.w.w.w.| Z Z A A A A A v @ . . . ",
". . . X g _ ) ) ) ) ) ( i.A.A.A.A.A.A.A.Z.m.b.b.b.b.b.b.b.b.b.b.b.s.w.w.w.] N N N N C C B z @ . . . ",
". . . X d H H H H H H F w.A.A.A.A.A.A.A.A.M.b.b.b.m.b.b.b.b.b.b.b.s.w.w.w.] N n n n n C N z @ . . . ",
". . . X x H H H H H H G w.A.A.A.A.A.A.A.Z.M.b.b.b.b.b.b.b.b.b.b.b.s.w.w.u.] n N C n n n N h @ . . . ",
". . . X x J H H H H H H w.A.A.A.A.A.A.A.A.m.m.b.b.b.b.b.b.b.b.b.b.s.w.w.u.] n C n C n C N z @ . . . ",
". . . X x J H H H H H H w.A.A.A.A.A.A.A.Z.m.m.b.m.b.b.b.b.b.b.b.b.s.w.w.u.] n n C n C n N h @ . . . ",
". . . X x H H H H H H F w.A.A.A.A.A.A.A.A.m.b.b.b.b.b.b.b.b.b.M.b.s.w.w.w.] n C n C n C N z @ . . . ",
". . . O x H H H H H H H w.A.A.A.A.A.A.A.Z.M.m.m.b.b.n.b.n.n.b.b.n.s.w.w.u.] n n C n C n N h @ . . . ",
". . . X x H H H H H H F w.A.A.A.A.A.A.A.A.Z.Z.Z.Z.s.u.i.i.i.i.i.i.u.w.w.u.] n N n N n C C z @ . . . ",
". . . X x J H H H H H F w.A.A.A.A.A.A.A.A.A.A.A.Z.i.w.w.w.w.w.w.w.w.w.w.w.] n N N n n n C z @ . . . ",
". . . X x J H J H H H F w.A.A.A.A.A.A.A.A.A.A.A.Z.u.w.w.w.w.w.w.w.w.w.e.u.' n n n n C B B z @ . . . ",
". . . X i d d d ! O.O.O.w.v.v.v.N.A.A.A.A.A.A.A.Z.x.d.d.d.u.w.w.w.6.o.o.o.} [ [ [ T a a a y @ . . . ",
"        X X X . $.A.Z.A.w.H / H +.A.A.A.A.A.A.A.A.A.A.A.Z.d.w.w.w.^ n C C 3.A.Z.A.=.X X X X         ",
"        . . . . #.A.A.A.w.H H H +.A.A.A.A.A.A.A.A.A.A.A.A.d.w.w.u.^ n n n 3.A.A.A.=.. . . .         ",
"        . . . . #.A.A.A.w.H H F +.A.A.A.A.A.A.A.A.A.A.A.Z.d.w.w.e.^ n n n 3.A.Z.A.=.X . . .         ",
"        . . . . K 8.7.7.w.s.s.s.u.7.7.7.7.7.7.7.5.{ { { { ' ~ ~ ~ 4.p.p.p.0.{ 2.2.P . . . .         ",
"        . . . . i H F F w.A.A.A.x.H H H F F H H D N n n n n n n n r.A.A.A.3.m n N u . . . .         ",
"        . . . . i J H J e.A.A.A.x./ H H H H H H G B C n C C n C n r.A.A.A.0.n n N u . . . .         ",
"        . . . . t M M M ` l.j.l.<.H / H H H H H G N n C n C C n N 1.l.j.l.R h h z r . . . .         ",
"                $ $ o $ # * * & , H H H H H H G H C C n C n n n N 5 & * * # @ @ @ @                 ",
"                . . . . . . . . > H H H H H H H G N N N n n n n N 1 . . . . . . . .                 ",
"                . . . . . . . . > H H H H J H H H B N N B N C B N 1 . . . . . . . .                 ",
"                                = 7 7 7 7 7 7 7 7 6 4 4 4 4 4 4 4 ;                                 ",
"                                  . . . . . . . . . . . . . . . .                                   ",
"                                  . . . . . . . . . . . . . . . .                                   ",
"                                  . . . . . . . . . . . . . . . .                                   "
};
