/* XPM */
static char *result[] = {
/* columns rows colors chars-per-pixel */
"50 50 109 2 ",
"   c #1E354C",
".  c #253748",
"X  c #253A4D",
"o  c #243C54",
"O  c #243E58",
"+  c #294057",
"@  c #27415B",
"#  c #2C455D",
"$  c #354C5F",
"%  c #264361",
"&  c #2A4764",
"*  c #2D4A64",
"=  c #2D4C6B",
"-  c #334C63",
";  c #344E69",
":  c #3B5266",
">  c #34536B",
",  c #3D556B",
"<  c #2E4E70",
"1  c #2F5072",
"2  c #335373",
"3  c #3A5775",
"4  c #3C5973",
"5  c #335678",
"6  c #365B7D",
"7  c #3C5D7C",
"8  c #3E617E",
"9  c #435666",
"0  c #41576D",
"q  c #42596D",
"w  c #485B6B",
"e  c #435C73",
"r  c #415F7C",
"t  c #446075",
"y  c #4B6376",
"u  c #44637C",
"i  c #4A647C",
"p  c #456A7C",
"a  c #4C6A7E",
"s  c #516475",
"d  c #506579",
"f  c #526A7E",
"g  c #3B5F81",
"h  c #3C6283",
"j  c #3D668A",
"k  c #3D698E",
"l  c #3D6D94",
"z  c #3C6F98",
"x  c #3F7096",
"c  c #3E729C",
"v  c #3F75A1",
"b  c #436483",
"n  c #4B6682",
"m  c #466984",
"M  c #4B6C83",
"N  c #436789",
"B  c #426A8B",
"V  c #4A6D8B",
"C  c #526D82",
"Z  c #596E80",
"A  c #506D89",
"S  c #4E7187",
"D  c #4E728C",
"F  c #517085",
"G  c #5A7286",
"H  c #53748A",
"J  c #5A778C",
"K  c #547C8D",
"L  c #5B7C8E",
"P  c #436E93",
"I  c #496E93",
"U  c #447195",
"Y  c #4B7395",
"T  c #42739A",
"R  c #4B7599",
"E  c #46789C",
"W  c #4C7B9C",
"Q  c #517593",
"!  c #567B94",
"~  c #5B7D92",
"^  c #517699",
"/  c #537C9B",
"(  c #597D9E",
")  c #4176A2",
"_  c #4579A2",
"`  c #4A7CA1",
"'  c #527DA1",
"]  c #5E8196",
"[  c #55829D",
"{  c #5B839C",
"}  c #5C889E",
"|  c #608396",
" . c #61869B",
".. c #628A9C",
"X. c #688D9F",
"o. c #65909F",
"O. c #5483A1",
"+. c #5B85A4",
"@. c #5789A7",
"#. c #5C8BA3",
"$. c #5D8DA9",
"%. c #5E91AA",
"&. c #6486A0",
"*. c #628CA4",
"=. c #698EA2",
"-. c #658DA9",
";. c #6490A3",
":. c #6493A9",
">. c None",
/* pixels */
">.>.>.>.>.>.>.>.~  . .......>.>.>.>.>.>.>.>.>.>.>.>.>.>.>.>.>.>.>.>.>.>.>.>.>.>.>.>.>.>.>.>.>.>.>.>.",
">.>.>.>.>.>.>.~ ~ ~ (  .{ .. .>.>.>.>.>.>.>.>.>.>.>.>.>.>.>.>.>.>.>.>.>.>.>.>.>.>.>.>.>.>.>.>.>.>.>.",
">.>.>.>.>.>.] ~ ( ( ( ' { { O.+.} >.>.>.>.>.>.>.>.>.>.>.>.>.>.>.>.>.>.>.>.>.>.>.>.>.>.>.>.>.>.>.>.>.",
">.>.>.>.>. .~ ! Q Q ^ ^ / ( O.[ [ O.} } #.>.>.>.>.>.>.>.>.>.>.>.>.>.>.>.>.>.>.>.>.>.>.>.>.>.>.>.>.>.",
">.>.>.>.L  .~ J A N I I R ^ ' ' ' ' ( O.O.} #.>.>.>.>.>.>.:.#.#.$.} >.>.>.>.>.>.>.>.>.>.>.>.>.>.>.>.",
">.d G G J ~ ! A b r N I R R ) T E _ _ ` ` O.O.#.*.:.:.:.:.%.#.@.+.$.*.>.>.>.>.>.>.>.>.>.>.>.>.>.>.>.",
"w s Z Z C J H n r 3 g P P T T ) ) ) ) _ _ O.O.O.#.$.$.;.%.$.@.@.@.*.*.>.>.>.>.>.>.>.>.>.>.>.>.>.>.>.",
">.w s d f f C n e e g g P P T c v v ) ) v _ _ _ [ [ [ O.O.O.@.@.$.*.>.>.>.>.>.>.>.>.>.>.>.>.>.>.>.>.",
">.>.9 w w e i u e 4 g N k l P T v v v v v v _ T T R R R ^ R ' +.-.>.>.>.>.>.>.>.>.>.>.>.>.>.>.>.>.>.",
">.>.>.>., 0 e e e e b N N k l z c c v v v v c c x U U I Y R ' -.-.>.>.>.>.>.>.>.>.>.>.>.>.>.>.>.>.>.",
">.>.>.>.>.>.: , e r n b N k k l x x x c v v v c c T U I I ^ ' ' =.>.>.>.>.>.>.>.>.>.>.>.>.>.>.>.>.>.",
">.>.>.>.>.>.>.>.e r n n N N N B B l l x c c c c c x U P I ^ ' ( &.>.>.>.>.>.>.>.>.>.>.>.>.>.>.>.>.>.",
">.>.>.>.>.>.>.>.>.e i n b b B B B B B l x x c x c c T P I I ^ '  .>.>.>.>.>.>.>.>.>.>.>.>.>.>.>.>.>.",
">.>.>.>.>.>.>.>.>.>.w e r n N B B B B b k k x x c c x z I I Q ^ +.>.>.>.>.>.>.>.>.>.>.>.>.>.>.>.>.>.",
">.>.>.>.>.>.>.>.>.>.>.0 0 r b V D B B m b j j l z z c c T U I ^ [ ~ >.>.>.>.>.>.>.>.>.>.>.>.>.>.>.>.",
">.>.>.>.>.>.>.>.>.>.>.>.- 3 i D Y D S m b h h h k l z x z P P ^ ( { >.>.>.>.>.>.>.>.>.>.>.>.>.>.>.>.",
">.>.>.>.>.>.>.>.>.>.>.>.+ > p K ! K A M a u u h h k k z z z x T [ [ >.>.>.>.>.>.>.>.>.>.>.>.>.>.>.>.",
">.>.>.>.>.>.>.>.>.>.>.>.o > m ] { K H A A C i u h h j l l z x T U [ [ >.>.>.>.>.>.>.>.>.>.>.>.>.>.>.",
">.>.>.>.>.>.>.>.>.>.>.>.o > M } ..~ H C G G f i u 8 8 h k l x x x W [ >.>.>.>.>.>.>.>.>.>.>.>.>.>.>.",
">.>.>.>.>.>.>.>.>.>.>.>.O > M ..X.L A f f G f a a u 8 h j k l l x T [ [ >.>.>.>.>.>.>.>.>.>.>.>.>.>.",
">.>.>.>.>.>.>.>.>.>.>.>.o > p ..=.| M w e i f f f C a r h h k l z c E [ >.>.>.>.>.>.>.>.>.>.>.>.>.>.",
">.>.>.>.>.>.>.>.>.>.>.>.>.* p ..=.L >.>., e y f f f n r 7 8 h k l z E [ } >.>.>.>.>.>.>.>.>.>.>.>.>.",
">.>.>.>.>.>.>.>.>.>.>.>.>.>.u  ...~ >.>.>.>.w e e d i a i g h j k l c O.} >.>.>.>.>.>.>.>.>.>.>.>.>.",
">.>.>.>.>.>.>.>.>.>.>.>.>.>.>.~ | | >.>.>.>.>.- : e i a n N g g h j x O.O.o.>.>.>.>.>.>.>.>.>.>.>.>.",
">.>.>.>.>.>.>.>.>.>.>.>.>.>.>.>.~ ~ >.>.>.>.>.>.>.0 e i i i r 7 g g l T [ #.>.>.>.>.>.>.>.>.>.>.>.>.",
">.>.>.>.>.>.>.>.>.>.>.>.>.>.>.>.>.>.>.>.>.>.>.>.>.>.>.0 w e r r 6 g g l W #.#.>.>.>.>.>.>.>.>.>.>.>.",
">.>.>.>.>.>.>.>.>.>.>.>.>.>.>.>.>.>.>.>.>.>.>.>.>.>.>.>.: 0 e 4 3 3 6 h T [ } >.>.>.>.>.>.>.>.>.>.>.",
">.>.>.>.>.>.>.>.>.>.>.>.>.>.>.>.>.>.>.>.>.>.>.>.>.>.>.>.>.>., , , 2 2 6 j W } } >.>.>.>.>.>.>.>.>.>.",
">.>.>.>.>.>.>.>.>.>.>.>.>.>.>.>.>.>.>.>.>.>.>.>.>.>.>.>.>.>.>.- : > ; 1 8 k [ } >.>.>.>.>.>.>.>.>.>.",
">.>.>.>.>.>.>.>.>.>.>.>.>.>.>.>.>.>.>.>.>.>.>.>.>.>.>.>.>.>.>.>.- ; ; = 1 h U [ >.>.>.>.>.>.>.>.>.>.",
">.>.>.>.>.>.>.>.>.>.>.>.>.>.>.>.>.>.>.>.>.>.>.>.>.>.>.>.>.>.>.>.>.# * * = 5 j Y ! >.>.>.>.>.>.>.>.>.",
">.>.>.>.>.>.>.>.>.>.>.>.>.>.>.>.>.>.>.>.>.>.>.>.>.>.>.>.>.>.>.>.>.>.# * = 1 8 B D >.>.>.>.>.>.>.>.>.",
">.>.>.>.>.>.>.>.>.>.>.>.>.>.>.>.>.>.>.>.>.>.>.>.>.>.>.>.>.>.>.>.>.>.>.* & = 5 h V >.>.>.>.>.>.>.>.>.",
">.>.>.>.>.>.>.>.>.>.>.>.>.>.>.>.>.>.>.>.>.>.>.>.>.>.>.>.>.>.>.>.>.>.>.>.& = 2 5 b V >.>.>.>.>.>.>.>.",
">.>.>.>.>.>.>.>.>.>.>.>.>.>.>.>.>.>.>.>.>.>.>.>.>.>.>.>.>.>.>.>.>.>.>.>.>.= = 5 h m >.>.>.>.>.>.>.>.",
">.>.>.>.>.>.>.>.>.>.>.>.>.>.>.>.>.>.>.>.>.>.>.>.>.>.>.>.>.>.>.>.>.>.>.>.>.>.& = 7 b >.>.>.>.>.>.>.>.",
">.>.>.>.>.>.>.>.>.>.>.>.>.>.>.>.>.>.>.>.>.>.>.>.>.>.>.>.>.>.>.>.>.>.>.>.>.>.% = 5 8 >.>.>.>.>.>.>.>.",
">.>.>.>.>.>.>.>.>.>.>.>.>.>.>.>.>.>.>.>.>.>.>.>.>.>.>.>.>.>.>.>.>.>.>.>.>.>.>.& > 7 D >.>.>.>.>.>.>.",
">.>.>.>.>.>.>.>.>.>.>.>.>.>.>.>.>.>.>.>.>.>.>.>.>.>.>.>.>.>.>.>.>.>.>.>.>.>.>.>.= 5 S >.>.>.>.>.>.>.",
">.>.>.>.>.>.>.>.>.>.>.>.>.>.>.>.>.>.>.>.>.>.>.>.>.>.>.>.>.>.>.>.>.>.>.>.>.>.>.>.# > M >.>.>.>.>.>.>.",
">.>.>.>.>.>.>.>.>.>.>.>.>.>.>.>.>.>.>.>.>.>.>.>.>.>.>.>.>.>.>.>.>.>.>.>.>.>.>.>.o = m H >.>.>.>.>.>.",
">.>.>.>.>.>.>.>.>.>.>.>.>.>.>.>.>.>.>.>.>.>.>.>.>.>.>.>.>.>.>.>.>.>.>.>.>.>.>.>.  * u S >.>.>.>.>.>.",
">.>.>.>.>.>.>.>.>.>.>.>.>.>.>.>.>.>.>.>.>.>.>.>.>.>.>.>.>.>.>.>.>.>.>.>.>.>.>.>.  # 3 p L ..>.>.>.>.",
">.>.>.>.>.>.>.>.>.>.>.>.>.>.>.>.>.>.>.>.>.>.>.>.>.>.>.>.>.>.>.>.>.>.>.>.>.>.>.>.X @ > t H ..;.>.>.>.",
">.>.>.>.>.>.>.>.>.>.>.>.>.>.>.>.>.>.>.>.>.>.>.>.>.>.>.>.>.>.>.>.>.>.>.>.>.>.>.X X @ # 8 f ] ..o.>.>.",
">.>.>.>.>.>.>.>.>.>.>.>.>.>.>.>.>.>.>.>.>.>.>.>.>.>.>.>.>.>.>.>.>.>.>.>.>.>.>.X @ + + - u F ] o.>.>.",
">.>.>.>.>.>.>.>.>.>.>.>.>.>.>.>.>.>.>.>.>.>.>.>.>.>.>.>.>.>.>.>.>.>.>.>.>.>.>.X + + o + , a ] ..} >.",
">.>.>.>.>.>.>.>.>.>.>.>.>.>.>.>.>.>.>.>.>.>.>.>.>.>.>.>.>.>.>.>.>.>.>.>.>.>.>.. X >.>.>.>.t a ] K >.",
">.>.>.>.>.>.>.>.>.>.>.>.>.>.>.>.>.>.>.>.>.>.>.>.>.>.>.>.>.>.>.>.>.>.>.>.>.>.>.>.>.>.>.>.>.>.t a p >.",
">.>.>.>.>.>.>.>.>.>.>.>.>.>.>.>.>.>.>.>.>.>.>.>.>.>.>.>.>.>.>.>.>.>.>.>.>.>.>.>.>.>.>.>.>.>.>.t p p "
};
